<!-- tamanho 26x26 -->
<svg xmlns="http://www.w3.org/2000/svg" height="70" width="70" viewBox="-29.58975 -36.47575 256.4445 218.8545"><path d="M197.265 8.212A8.213 8.213 0 00189.052 0H8.212A8.211 8.211 0 000 8.212V137.69a8.212 8.212 0 008.212 8.213h180.84a8.213 8.213 0 008.213-8.213z" fill="#DFD9CB"/><path d="M170.118 87.729c0 12.922-10.475 23.398-23.398 23.398H50.544c-12.922 0-23.397-10.477-23.397-23.398V43.034c0-12.922 10.475-23.397 23.397-23.397h96.176c12.924 0 23.4 10.475 23.4 23.397v44.695z"/><path d="M61.166 51.718v5.372c.816.055 1.605.152 2.396.154 7.841.016 15.682.03 23.522.01 2.058-.005 3.956.426 5.641 1.635 2.085 1.495 3.311 3.5 3.324 6.093.037 7.291.081 14.583.001 21.873-.049 4.527-3.689 7.814-8.617 7.865-6.671.068-13.343.041-20.014.049-5.228.006-10.455 0-15.682 0-2.472 0-4.629-.885-6.244-2.703-.882-.992-1.833-2.293-1.945-3.527-.278-3.047-.091-6.133-.091-9.514h34.955v-5.703c-.808-.041-1.597-.116-2.386-.117-7.772-.008-15.544 0-23.316-.001-2.552 0-4.896-.588-6.844-2.369-1.605-1.467-2.55-3.229-2.553-5.425-.011-7.291-.048-14.582.017-21.872.029-3.354 2.609-6.352 6.055-7.195a14.625 14.625 0 013.466-.427c13.687.023 27.374.086 41.06.145.609.003 1.219.071 1.988.119v15.54c-11.478-.002-22.986-.002-34.733-.002zm88.876-14.229c-1.783-1.085-3.773-1.189-5.777-1.193-13.34-.025-26.682-.043-40.021-.057-.67 0-1.342.061-2.092.097v57.977h17.451V78.854c1.064-.049 1.871-.119 2.678-.119 7.701-.012 15.402.01 23.104-.016 4.525-.016 7.041-1.934 8.189-6.293.313-1.181.432-2.442.438-3.667.039-8.183-.004-16.366.039-24.548.015-3.092-1.489-5.189-4.009-6.722z" fill="#DFD9CB"/><path d="M131.753 51.472h10.125l.176.382-7.102 5.792c1.736 2.876 3.35 5.551 4.963 8.227l-.264.356-11.613-3.752a126636.3 126636.3 0 01-8.359 6.182l-.389-.241c1.205-3.592 2.412-7.186 3.686-10.976-2.002-2.331-4.029-4.695-6.385-7.437l8.975 1.438c.52-1.291 1.021-2.545 1.527-3.797.475-1.171.953-2.339 1.432-3.508l.475.029c.457 1.183.922 2.363 1.369 3.55.456 1.209.894 2.425 1.384 3.755z" fill="#E53435"/><path d="M50.596 123.13a4.525 4.525 0 00-1.027-.365c-.323-.07-.577-.119-.769-.148-.611-.117-1.106-.211-1.483-.287a6.284 6.284 0 01-.854-.215c-.193-.064-.299-.143-.31-.162-.024-.029-.046-.074-.046-.172.001-.104.024-.154.066-.205a.836.836 0 01.263-.191c.114-.055.246-.096.396-.119.16-.023.319-.037.478-.037.253 0 .483.016.691.047.202.033.374.084.52.152a.797.797 0 01.313.25.789.789 0 01.132.404.276.276 0 00.273.252h2.083a.278.278 0 00.274-.275c.001-.469-.122-.895-.374-1.24a2.72 2.72 0 00-.965-.814 4.597 4.597 0 00-1.332-.441 8.568 8.568 0 00-1.522-.133c-.457 0-.914.047-1.37.139a4.628 4.628 0 00-1.252.436 2.823 2.823 0 00-.931.766 1.828 1.828 0 00-.38 1.146 1.7 1.7 0 00.305 1.014c.193.27.447.494.751.666.296.17.628.307.993.41.353.102.715.186 1.086.254v.002c.359.074.714.145 1.064.205.338.061.639.129.9.207.253.076.447.17.581.268.11.086.135.141.141.258-.004.121-.032.182-.104.254a1.07 1.07 0 01-.384.223 2.288 2.288 0 01-.554.123 5.436 5.436 0 01-.586.035c-.267 0-.523-.023-.77-.07a2.298 2.298 0 01-.614-.207 1.069 1.069 0 01-.377-.33l-.226.156.226-.156a.792.792 0 01-.128-.467.27.27 0 00-.081-.195.283.283 0 00-.195-.08h-2.083a.275.275 0 00-.275.268v.061c-.001.473.125.908.378 1.27a2.92 2.92 0 001.019.893c.417.227.892.391 1.422.494a8.47 8.47 0 001.621.154c.682 0 1.289-.061 1.822-.182.527-.121.98-.291 1.355-.52a2.5 2.5 0 00.867-.834c.199-.326.3-.691.3-1.074.002-.459-.136-.873-.418-1.189a2.838 2.838 0 00-.91-.699zm10.659-3.528h-2.15a.279.279 0 00-.195.08.279.279 0 00-.08.195v4.543c-.002.5-.13.807-.345.994-.196.182-.668.32-1.407.316-.419 0-.742-.045-.957-.123a1.33 1.33 0 01-.506-.293.77.77 0 01-.214-.375v-.002a2.185 2.185 0 01-.061-.518v-4.543a.277.277 0 00-.276-.275h-2.15a.279.279 0 00-.195.08.28.28 0 00-.081.195v4.543c-.006 1.059.407 1.916 1.213 2.439.792.52 1.871.762 3.227.762 1.338 0 2.415-.244 3.218-.766.819-.525 1.242-1.381 1.235-2.436v-4.543a.28.28 0 00-.08-.195.291.291 0 00-.196-.078zm10.562 4.493h-2.082a.273.273 0 00-.271.229 1.609 1.609 0 01-.58 1.02c-.306.248-.75.389-1.368.389-.458 0-.833-.066-1.127-.189a1.958 1.958 0 01-.723-.488 1.868 1.868 0 01-.402-.684 2.556 2.556 0 01-.13-.809c0-.293.044-.574.131-.848.084-.264.217-.496.402-.703a1.93 1.93 0 01.722-.492c.295-.123.67-.189 1.128-.189.242 0 .471.031.689.088.219.059.412.139.58.242.17.102.304.217.411.344l.211-.176-.211.176c.101.123.16.246.188.385a.276.276 0 00.27.221h2.082a.272.272 0 00.208-.096.27.27 0 00.063-.221 2.723 2.723 0 00-.518-1.25 3.437 3.437 0 00-1.02-.896 5.098 5.098 0 00-1.362-.535 6.685 6.685 0 00-1.592-.182c-.773 0-1.477.102-2.107.311-.625.207-1.163.496-1.605.869-.438.371-.78.813-1.016 1.316a3.793 3.793 0 00-.354 1.637c0 .57.118 1.107.355 1.605a3.78 3.78 0 001.018 1.297c.442.365.979.648 1.604.852.63.205 1.333.307 2.106.307.623 0 1.2-.07 1.729-.215a4.556 4.556 0 001.399-.633c.403-.279.733-.621.982-1.021.25-.404.405-.857.463-1.35a.276.276 0 00-.273-.311zm6.739-1.297l3.577-2.699a.279.279 0 00.095-.309.278.278 0 00-.261-.188h-2.685a.267.267 0 00-.171.061l-3.376 2.674v-2.459a.277.277 0 00-.08-.195.279.279 0 00-.195-.08h-2.15a.279.279 0 00-.195.08.279.279 0 00-.08.195v7.303a.274.274 0 00.275.275h2.15a.277.277 0 00.195-.08.268.268 0 00.08-.195v-2.215l.922-.695 2.776 3.094a.266.266 0 00.205.092h2.699a.273.273 0 00.252-.166.277.277 0 00-.053-.299zm12.095 2.758h-4.999v-1.238h4.465a.28.28 0 00.195-.08.279.279 0 00.08-.195v-1.248a.281.281 0 00-.08-.195.28.28 0 00-.195-.08h-4.465v-1.016h4.89a.275.275 0 00.275-.275v-1.35a.277.277 0 00-.08-.195.279.279 0 00-.195-.08h-7.315a.275.275 0 00-.275.275v7.303a.27.27 0 00.081.195c.05.053.122.08.194.08h7.424a.277.277 0 00.195-.08.268.268 0 00.08-.195v-1.35a.274.274 0 00-.275-.276zm9.938 1.164a2.276 2.276 0 01-.098-.412v-.002a5.741 5.741 0 01-.045-.459c-.01-.158-.02-.295-.029-.414v-.006a3.669 3.669 0 00-.109-.598 1.854 1.854 0 00-.281-.594 1.83 1.83 0 00-.5-.471c-.025-.016-.057-.027-.084-.041.275-.148.508-.326.68-.547.281-.361.422-.803.42-1.283 0-.324-.078-.633-.232-.914a2.23 2.23 0 00-.654-.73 3.311 3.311 0 00-.986-.477 4.447 4.447 0 00-1.264-.17h-5.274a.277.277 0 00-.195.08.279.279 0 00-.08.195v7.305c0 .072.03.145.08.195.051.051.122.08.195.08h2.151a.273.273 0 00.275-.275v-2.58h1.875c.51-.002.846.092 1 .211.169.129.293.334.36.672.053.283.093.58.12.893.029.348.109.66.248.93a.274.274 0 00.245.148h2.151a.277.277 0 00.254-.168.275.275 0 00-.059-.299.662.662 0 01-.164-.269zm-6.032-5.319h2.081c.464 0 .786.08.959.195a.504.504 0 01.179.201.776.776 0 01.065.342.855.855 0 01-.066.359.504.504 0 01-.18.209c-.173.117-.493.201-.957.199h-2.081zm18.52-1.01c-.305-.246-.686-.436-1.141-.576-.465-.145-1.012-.213-1.643-.213h-4.412a.276.276 0 00-.193.08.282.282 0 00-.08.195v7.305c0 .072.029.145.08.195.051.05.123.08.193.08h2.152a.272.272 0 00.273-.275v-2.344h1.986c.631 0 1.178-.068 1.643-.213.453-.141.836-.33 1.139-.574a2.25 2.25 0 00.668-.857 2.386 2.386 0 000-1.954 2.248 2.248 0 00-.665-.849zm-4.769 1.01h1.396c.236 0 .463.014.68.039.205.025.379.07.521.137a.755.755 0 01.311.244c.061.084.104.207.104.4 0 .191-.041.314-.104.4a.762.762 0 01-.311.244 1.843 1.843 0 01-.521.137 5.937 5.937 0 01-.68.037h-1.396zm15.041-1.799h-2.152a.276.276 0 00-.275.275v4.543c0 .5-.129.807-.342.994-.197.182-.67.32-1.408.316-.42 0-.742-.045-.957-.123a1.33 1.33 0 01-.506-.293.767.767 0 01-.217-.375 2.338 2.338 0 01-.061-.52v-4.543a.275.275 0 00-.275-.275h-2.15a.276.276 0 00-.275.275v4.543c-.006 1.059.408 1.916 1.215 2.439.791.52 1.869.762 3.227.762 1.338 0 2.414-.244 3.217-.766.82-.525 1.242-1.381 1.234-2.436v-4.543a.272.272 0 00-.08-.195.294.294 0 00-.195-.078zm10.137 0h-2.014a.274.274 0 00-.275.275v4.174l-3.623-4.35a.278.278 0 00-.211-.1h-2.137a.274.274 0 00-.275.275v7.305c0 .072.029.145.08.195a.28.28 0 00.195.08h2.014a.272.272 0 00.273-.275v-4.162l3.609 4.338c.053.063.131.1.211.1h2.152a.272.272 0 00.193-.08.272.272 0 00.082-.195v-7.305a.266.266 0 00-.082-.193.268.268 0 00-.192-.082zm10.601 4.493h-2.082a.272.272 0 00-.271.229 1.609 1.609 0 01-.58 1.02c-.305.248-.75.389-1.367.389-.457 0-.834-.066-1.127-.189a1.975 1.975 0 01-.725-.488 1.877 1.877 0 01-.4-.684 2.52 2.52 0 01-.131-.809c0-.293.045-.574.131-.848.086-.264.219-.496.402-.703a1.91 1.91 0 01.723-.492c.293-.123.67-.189 1.127-.189.242 0 .471.031.689.088.219.059.412.139.578.242.17.102.305.215.412.344.102.123.16.246.188.385a.276.276 0 00.27.221h2.082a.27.27 0 00.207-.096.26.26 0 00.064-.221 2.712 2.712 0 00-.518-1.25 3.425 3.425 0 00-1.02-.896 5.078 5.078 0 00-1.361-.535 6.685 6.685 0 00-1.592-.182c-.773 0-1.477.102-2.107.311-.625.207-1.162.496-1.605.869a3.887 3.887 0 00-1.016 1.316 3.794 3.794 0 00-.355 1.637c0 .57.117 1.107.355 1.605a3.78 3.78 0 001.018 1.297c.441.365.979.648 1.604.852.631.205 1.334.307 2.105.307.623 0 1.201-.07 1.73-.215a4.583 4.583 0 001.4-.633c.402-.277.732-.621.98-1.021a3.31 3.31 0 00.465-1.35.276.276 0 00-.068-.217.264.264 0 00-.205-.094zm9.947-4.413a.274.274 0 00-.193-.08h-2.15a.277.277 0 00-.195.08.282.282 0 00-.08.195v2.527h-3.41v-2.527a.272.272 0 00-.275-.275h-2.148a.28.28 0 00-.195.08.282.282 0 00-.08.195v7.305c0 .072.029.145.08.195.053.051.123.08.195.08h2.148a.274.274 0 00.275-.275v-2.877h3.41v2.877c0 .072.029.145.08.195.051.05.123.08.195.08h2.15a.272.272 0 00.193-.08.285.285 0 00.082-.195v-7.305a.286.286 0 00-.082-.195z"/></svg>