<?xml version="1.0" standalone="no"?>
<!DOCTYPE svg PUBLIC "-//W3C//DTD SVG 20010904//EN"
 "http://www.w3.org/TR/2001/REC-SVG-20010904/DTD/svg10.dtd">
<svg version="1.0" xmlns="http://www.w3.org/2000/svg"
 width="140pt" height="100pt" viewBox="0 0 1098.000000 495.000000"
 preserveAspectRatio="xMidYMid meet">

<g transform="translate(0.000000,495.000000) scale(0.100000,-0.100000)"
fill="#fff" stroke="none">
<path d="M5345 4590 c-211 -30 -408 -124 -558 -269 -59 -56 -157 -180 -157
-198 0 -17 -50 -78 -71 -85 -25 -10 -35 -36 -21 -58 8 -14 6 -29 -8 -67 -10
-26 -16 -60 -13 -74 3 -15 0 -30 -6 -33 -7 -5 -8 -13 -1 -25 6 -13 5 -24 -5
-37 -17 -22 -19 -38 -5 -29 6 3 7 -1 4 -9 -3 -9 -10 -16 -15 -16 -5 0 -9 -7
-9 -15 0 -20 9 -19 33 3 19 16 20 16 9 -4 -10 -19 -8 -23 9 -27 13 -4 19 -1
16 6 -2 7 6 20 19 30 17 13 24 14 25 5 0 -7 4 -4 9 7 12 29 12 38 -2 32 -9 -3
-13 8 -14 34 0 21 3 36 8 33 5 -4 16 2 23 12 14 18 14 18 15 1 0 -14 5 -17 20
-12 18 6 20 3 15 -22 -6 -27 -6 -27 11 5 9 17 22 32 29 32 8 0 19 17 25 38 7
20 28 70 48 111 27 55 44 77 64 85 16 6 31 18 34 28 3 10 14 18 26 18 30 0 59
40 52 72 -5 23 2 32 48 66 210 157 497 199 740 108 127 -48 192 -90 293 -191
76 -76 98 -105 137 -185 62 -126 78 -192 85 -335 4 -101 2 -133 -16 -205 -58
-231 -216 -431 -421 -532 -213 -105 -496 -103 -702 6 -38 19 -74 33 -82 30 -8
-3 -17 -1 -21 5 -9 16 -28 13 -22 -2 3 -8 -1 -14 -9 -14 -7 0 -15 6 -18 13 -3
8 -12 11 -21 8 -8 -3 -15 -1 -15 4 0 6 14 9 30 7 18 -2 30 1 30 7 0 6 9 3 20
-7 11 -10 22 -16 25 -13 3 3 -16 22 -42 43 -67 53 -116 105 -163 175 -22 33
-43 60 -45 60 -10 0 18 -59 31 -64 8 -3 14 -12 14 -21 0 -8 5 -15 10 -15 6 0
10 -6 10 -12 -1 -7 -10 -2 -21 12 -11 14 -31 37 -44 51 -27 31 -49 76 -66 137
-10 33 -15 39 -21 28 -5 -9 -4 -24 2 -36 6 -11 8 -20 4 -20 -3 0 0 -10 8 -22
27 -42 28 -57 7 -68 -26 -15 -43 -3 -24 16 17 18 19 30 5 39 -5 3 -10 14 -10
24 0 20 -33 54 -43 44 -4 -3 -7 1 -7 10 0 10 -4 17 -10 17 -5 0 -10 10 -10 23
0 12 -9 28 -20 35 -12 7 -18 17 -15 21 9 15 -5 39 -26 44 -23 6 -26 -18 -3
-31 14 -8 14 -10 -2 -16 -11 -4 -20 -2 -22 3 -2 6 -8 9 -12 6 -5 -3 -3 7 5 21
10 19 11 33 4 46 -11 20 1 24 19 6 8 -8 12 -9 12 -1 0 6 -6 13 -12 16 -10 3
-10 9 -1 25 11 18 10 20 -2 16 -18 -7 -20 17 -3 34 9 9 9 12 1 12 -7 0 -13 9
-15 20 -5 33 -22 25 -34 -17 -13 -43 -7 -114 7 -92 7 11 9 10 9 -3 0 -9 -8
-19 -17 -21 -17 -4 -17 -5 0 -6 11 -1 17 -9 17 -23 0 -19 -2 -20 -11 -8 -8 11
-9 8 -4 -15 3 -16 11 -52 16 -79 20 -96 93 -250 156 -331 12 -16 32 -41 42
-55 55 -72 82 -97 160 -156 153 -114 305 -177 499 -204 92 -13 265 2 368 30
480 135 787 592 729 1084 -8 61 -23 140 -35 176 -52 163 -154 324 -276 441
-112 107 -284 200 -439 238 -98 25 -276 35 -370 21z m-745 -669 c0 -5 -7 -14
-15 -21 -16 -14 -18 -10 -9 14 6 17 24 22 24 7z m15 -63 c-4 -18 -11 -37 -17
-43 -6 -6 -7 -4 -3 6 3 9 -1 22 -10 29 -8 7 -15 17 -15 23 0 6 7 2 15 -9 14
-19 15 -19 21 4 10 34 16 26 9 -10z m99 -22 c-3 -9 -10 -16 -15 -16 -5 0 -4 9
3 20 14 22 21 20 12 -4z m-150 -27 c10 9 12 3 7 -25 -3 -19 -10 -34 -15 -34
-5 1 -13 -4 -18 -12 -6 -8 -7 -4 -2 12 5 14 8 36 7 50 0 14 2 19 4 12 4 -9 9
-10 17 -3z m-1 -94 c4 -8 2 -17 -3 -20 -6 -4 -10 3 -10 14 0 25 6 27 13 6z
m-38 -125 c3 -5 2 -10 -4 -10 -5 0 -13 5 -16 10 -3 6 -2 10 4 10 5 0 13 -4 16
-10z m55 -290 c0 -5 -5 -10 -11 -10 -5 0 -7 5 -4 10 3 6 8 10 11 10 2 0 4 -4
4 -10z m86 -36 c-3 -7 -1 -16 4 -19 5 -3 7 -12 4 -20 -4 -8 -10 -13 -15 -10
-4 3 -6 12 -3 19 3 8 1 17 -5 21 -6 3 -11 1 -11 -6 0 -10 -3 -10 -11 -2 -13
13 -3 36 12 28 5 -4 9 -1 9 5 0 6 5 8 11 5 6 -4 8 -13 5 -21z m-91 -4 c-3 -5
3 -10 15 -10 12 0 18 -5 15 -10 -4 -6 -11 -8 -16 -5 -5 4 -9 -1 -9 -10 0 -9
-4 -14 -8 -11 -5 3 -8 15 -6 28 3 28 3 28 10 28 3 0 2 -4 -1 -10z m125 -44 c0
-3 -4 -8 -10 -11 -5 -3 -10 -1 -10 4 0 6 5 11 10 11 6 0 10 -2 10 -4z m-80
-37 c0 -5 -5 -9 -12 -9 -6 0 -4 -6 6 -13 11 -8 17 -20 14 -27 -2 -8 -13 0 -26
22 -27 43 -27 47 -2 41 11 -3 20 -9 20 -14z m36 -5 c-8 -21 4 -40 15 -23 4 7
11 10 16 6 10 -11 -17 -27 -33 -20 -15 5 -15 53 -1 53 5 0 6 -7 3 -16z m107
-14 c15 -18 15 -21 2 -26 -10 -4 -13 -13 -9 -27 5 -16 3 -19 -10 -14 -21 8
-20 -2 1 -32 9 -14 11 -21 5 -17 -7 4 -19 20 -27 36 -11 22 -12 29 -2 33 8 2
7 9 -6 21 -17 17 -17 19 0 32 24 18 26 17 46 -6z m-54 -80 c4 -3 11 -18 15
-35 8 -30 7 -30 -12 -10 -11 11 -17 24 -15 28 3 5 -3 17 -12 27 -10 11 -14 24
-9 31 5 9 10 5 16 -12 5 -13 13 -26 17 -29z m121 -4 c19 -21 29 -36 23 -32 -7
4 -13 2 -13 -5 0 -20 -27 9 -34 37 -4 14 -10 22 -15 19 -5 -2 -11 1 -14 9 -6
16 4 30 12 19 3 -5 22 -26 41 -47z m-160 14 c0 -5 -6 -10 -14 -10 -8 0 -18 5
-21 10 -3 6 3 10 14 10 12 0 21 -4 21 -10z m120 -51 c0 -6 -4 -7 -10 -4 -5 3
-10 11 -10 16 0 6 5 7 10 4 6 -3 10 -11 10 -16z m126 -17 c9 -14 8 -18 -5 -18
-9 0 -17 8 -17 18 0 10 3 18 6 18 3 0 10 -8 16 -18z m39 -32 c3 -5 1 -10 -4
-10 -6 0 -11 5 -11 10 0 6 2 10 4 10 3 0 8 -4 11 -10z m-105 -26 c0 -8 -5 -12
-10 -9 -6 4 -8 11 -5 16 9 14 15 11 15 -7z m80 6 c0 -5 -5 -10 -11 -10 -5 0
-7 5 -4 10 3 6 8 10 11 10 2 0 4 -4 4 -10z m55 0 c3 -5 1 -10 -4 -10 -6 0 -11
5 -11 10 0 6 2 10 4 10 3 0 8 -4 11 -10z m-105 -30 c0 -5 -5 -10 -11 -10 -5 0
-7 5 -4 10 3 6 8 10 11 10 2 0 4 -4 4 -10z m25 -19 c3 -5 1 -12 -5 -16 -5 -3
-10 1 -10 9 0 18 6 21 15 7z m105 -31 c0 -5 -5 -10 -11 -10 -5 0 -7 5 -4 10 3
6 8 10 11 10 2 0 4 -4 4 -10z m35 0 c3 -5 2 -10 -4 -10 -5 0 -13 5 -16 10 -3
6 -2 10 4 10 5 0 13 -4 16 -10z m-100 -10 c3 -5 1 -10 -4 -10 -6 0 -11 5 -11
10 0 6 2 10 4 10 3 0 8 -4 11 -10z m45 -18 c-8 -3 -7 -8 0 -17 11 -13 8 -13
-29 -6 -2 1 1 7 8 14 8 10 7 17 -2 26 -9 10 -6 10 11 0 12 -8 17 -16 12 -17z
m45 -12 c3 -5 -1 -10 -10 -10 -9 0 -13 5 -10 10 3 6 8 10 10 10 2 0 7 -4 10
-10z"/>
<path d="M4735 3150 c3 -5 8 -10 11 -10 2 0 4 5 4 10 0 6 -5 10 -11 10 -5 0
-7 -4 -4 -10z"/>
<path d="M400 4231 c-32 -6 -35 -9 -40 -46 -3 -22 -5 -298 -4 -613 1 -428 4
-576 13 -585 9 -9 144 -12 529 -12 l517 0 78 -38 c91 -43 103 -45 111 -14 8
29 8 716 0 756 l-6 31 -422 -1 c-231 0 -437 -4 -456 -9 -30 -7 -31 -8 -9 -9
20 -1 25 -6 24 -22 -1 -11 -8 -24 -15 -29 -20 -12 -6 -23 30 -23 18 0 27 -4
23 -11 -4 -6 0 -5 9 2 13 10 17 10 22 -4 3 -8 6 -17 6 -18 0 -1 -15 -2 -32 -1
-29 0 -33 -3 -33 -25 0 -15 5 -24 13 -22 6 1 12 -2 12 -8 0 -5 7 -10 15 -10 8
0 15 5 15 11 0 5 5 7 11 3 8 -4 3 -12 -12 -20 -20 -11 22 -13 279 -14 l302 0
0 -149 c0 -93 -4 -152 -10 -156 -15 -9 -763 -10 -778 -1 -9 5 -12 107 -12 416
l0 409 298 3 297 3 35 -28 35 -28 25 28 c25 28 26 28 155 28 l130 0 37 70 c20
39 38 84 40 100 l3 30 -83 3 c-46 2 -82 -1 -79 -5 3 -4 -2 -14 -10 -22 -13
-12 -14 -11 -9 6 5 14 1 23 -10 27 -11 4 -15 2 -11 -7 3 -8 -8 -21 -25 -32
-21 -12 -28 -14 -22 -4 26 43 21 44 -139 41 -98 -2 -156 -7 -166 -15 -12 -9
-13 -9 -7 1 5 9 -15 12 -89 12 -58 0 -103 -5 -116 -12 -17 -10 -23 -10 -26 -1
-3 9 -55 12 -199 13 -108 0 -198 1 -202 3 -4 2 -23 1 -42 -2z m370 -25 c0 -3
-4 -8 -10 -11 -5 -3 -10 -1 -10 4 0 6 5 11 10 11 6 0 10 -2 10 -4z m60 0 c0
-3 -4 -8 -10 -11 -5 -3 -10 -1 -10 4 0 6 5 11 10 11 6 0 10 -2 10 -4z m175 -6
c3 -5 -1 -10 -9 -10 -9 0 -16 5 -16 10 0 6 4 10 9 10 6 0 13 -4 16 -10z m-475
-30 c0 -11 -4 -20 -9 -20 -5 0 -7 9 -4 20 3 11 7 20 9 20 2 0 4 -9 4 -20z
m210 -6 c0 -2 -7 -4 -15 -4 -8 0 -15 4 -15 10 0 5 7 7 15 4 8 -4 15 -8 15 -10z
m-268 -26 c-9 -9 -12 -7 -12 12 0 19 3 21 12 12 9 -9 9 -15 0 -24z m16 -22
c-7 -8 -15 -12 -17 -11 -5 6 10 25 20 25 5 0 4 -6 -3 -14z m7 -116 c3 -6 -1
-7 -9 -4 -18 7 -21 14 -7 14 6 0 13 -4 16 -10z m-95 -10 c0 -5 -4 -10 -10 -10
-5 0 -10 5 -10 10 0 6 5 10 10 10 6 0 10 -4 10 -10z m75 -30 c3 -5 2 -10 -4
-10 -5 0 -13 5 -16 10 -3 6 -2 10 4 10 5 0 13 -4 16 -10z m315 -280 c0 -5 -7
-10 -15 -10 -8 0 -15 5 -15 10 0 6 7 10 15 10 8 0 15 -4 15 -10z m-400 -230
c0 -5 -4 -10 -10 -10 -5 0 -10 5 -10 10 0 6 5 10 10 10 6 0 10 -4 10 -10z m20
-295 c7 -8 9 -15 6 -15 -4 0 -14 7 -22 15 -9 8 -11 15 -6 15 5 0 15 -7 22 -15z
m180 -5 c0 -5 -5 -10 -11 -10 -5 0 -7 5 -4 10 3 6 8 10 11 10 2 0 4 -4 4 -10z
m-180 -100 c0 -5 -5 -10 -11 -10 -5 0 -7 5 -4 10 3 6 8 10 11 10 2 0 4 -4 4
-10z"/>
<path d="M8160 4233 c-41 -2 -264 -4 -495 -6 l-420 -2 -3 -340 c-1 -187 0
-350 3 -362 l5 -23 455 0 c424 0 455 -1 464 -18 5 -9 9 -60 9 -113 -1 -53 2
-101 6 -107 4 -7 3 -12 -3 -12 -6 0 -8 -6 -5 -14 3 -8 1 -23 -4 -33 -10 -17
-33 -18 -451 -16 -292 1 -443 -2 -447 -9 -4 -6 -9 -5 -15 3 -4 7 -12 10 -16 5
-4 -5 -2 -11 5 -13 17 -6 15 -23 -3 -23 -8 0 -20 -10 -26 -22 -11 -21 -11 -22
5 -9 14 12 16 12 11 -2 -4 -8 -2 -18 4 -22 6 -3 11 -2 11 3 0 5 9 8 20 7 22
-1 41 -15 21 -15 -7 0 -9 -4 -6 -10 3 -6 -6 -11 -22 -12 -15 0 -32 -2 -38 -3
-5 -2 -19 -4 -30 -5 -15 -1 -13 -4 10 -11 17 -5 36 -7 43 -4 6 2 12 -2 12 -10
0 -8 5 -15 10 -15 6 0 10 -5 10 -11 0 -6 -8 -9 -17 -7 -10 2 -17 10 -15 17 1
7 -3 11 -10 9 -7 -3 -13 -13 -13 -24 0 -17 10 -20 80 -25 44 -3 254 -3 467 -1
351 4 388 3 394 -12 7 -19 55 -22 51 -3 -1 9 17 11 70 9 123 -5 113 -36 113
363 0 189 -3 350 -6 359 -5 14 -56 16 -465 16 l-459 0 0 155 c0 117 3 155 13
156 6 1 81 1 166 -1 l153 -2 28 -31 c26 -30 30 -31 54 -18 14 8 26 23 26 33 0
21 4 22 29 6 15 -9 25 -9 46 0 17 8 86 12 196 12 l170 0 40 85 c55 116 51 125
-51 125 -43 0 -84 1 -92 3 -7 1 -47 1 -88 0z m155 -923 c3 -5 1 -10 -4 -10 -6
0 -11 5 -11 10 0 6 2 10 4 10 3 0 8 -4 11 -10z m-95 -24 c0 -3 -4 -8 -10 -11
-5 -3 -10 -1 -10 4 0 6 5 11 10 11 6 0 10 -2 10 -4z m-930 -136 c-8 -5 -17 -7
-19 -4 -3 3 1 9 9 14 8 5 17 7 19 4 3 -3 -1 -9 -9 -14z m80 -80 c0 -5 -2 -10
-4 -10 -3 0 -8 5 -11 10 -3 6 -1 10 4 10 6 0 11 -4 11 -10z"/>
<path d="M9355 4230 l-90 -5 1 -30 c1 -16 17 -61 35 -100 l34 -70 207 0 c152
0 210 -3 220 -13 6 -6 21 -12 33 -12 46 0 48 -22 47 -378 -1 -238 1 -331 9
-326 7 4 6 -2 -1 -17 -9 -16 -11 -54 -6 -133 3 -61 6 -120 6 -131 1 -17 2 -17
10 -5 5 9 7 28 6 43 -2 15 1 30 5 33 5 3 9 0 9 -6 0 -6 4 -9 9 -5 10 5 11 -2
12 -57 1 -31 10 -35 29 -14 22 27 40 7 40 -45 0 -27 4 -49 9 -49 6 0 7 24 4
55 -4 38 -2 55 6 55 11 0 15 -30 11 -77 -1 -13 3 -23 9 -23 6 0 10 3 10 8 -5
29 3 51 16 46 10 -4 12 -15 9 -33 -4 -20 -1 -30 10 -34 12 -5 14 -2 6 18 -5
13 -6 27 -1 29 4 3 9 243 10 533 1 290 3 528 4 530 1 1 116 3 255 4 265 2 290
6 275 46 -4 10 -8 12 -10 6 -3 -7 -11 -9 -20 -6 -9 4 -21 -1 -29 -12 -17 -23
-18 -15 -2 20 12 27 24 32 31 13 4 -10 6 -10 6 0 1 6 12 12 25 12 30 0 42 15
20 24 -9 3 -14 13 -10 21 4 11 -1 13 -24 8 -20 -3 -30 -1 -30 6 0 7 8 11 18
10 39 -4 92 2 92 9 0 5 -13 7 -30 4 -18 -3 -30 0 -30 7 0 10 22 15 58 14 26
-1 10 16 -20 22 -41 7 -1171 12 -1293 5z m675 -20 c0 -5 -5 -10 -11 -10 -5 0
-7 5 -4 10 3 6 8 10 11 10 2 0 4 -4 4 -10z m40 0 c0 -5 -4 -10 -10 -10 -5 0
-10 5 -10 10 0 6 5 10 10 10 6 0 10 -4 10 -10z m-162 -22 c-2 -6 -10 -14 -16
-16 -7 -2 -10 2 -6 12 7 18 28 22 22 4z m-53 -9 c11 -16 1 -19 -13 -3 -7 8 -8
14 -3 14 5 0 13 -5 16 -11z m735 -49 c0 -5 -5 -10 -11 -10 -5 0 -7 5 -4 10 3
6 8 10 11 10 2 0 4 -4 4 -10z m-700 -70 c0 -5 -4 -10 -10 -10 -5 0 -10 5 -10
10 0 6 5 10 10 10 6 0 10 -4 10 -10z m76 -1027 c-11 -11 -19 6 -11 24 8 17 8
17 12 0 3 -10 2 -21 -1 -24z m-26 7 c0 -5 -4 -10 -10 -10 -5 0 -10 5 -10 10 0
6 5 10 10 10 6 0 10 -4 10 -10z m97 -12 c-3 -8 -6 -5 -6 6 -1 11 2 17 5 13 3
-3 4 -12 1 -19z"/>
<path d="M2546 4214 c-14 -13 -15 -49 -13 -260 l2 -244 -22 0 c-59 0 -68 -29
-29 -97 13 -23 29 -56 34 -75 10 -30 21 -267 22 -460 0 -63 3 -78 15 -78 8 0
15 -7 15 -16 0 -10 6 -14 15 -10 8 3 15 0 15 -6 0 -6 3 -8 7 -4 4 4 6 22 5 40
-2 30 0 34 19 29 15 -4 17 -8 8 -14 -10 -6 -10 -11 0 -23 7 -9 11 -23 7 -31
-6 -17 9 -21 19 -4 4 6 13 8 21 5 8 -3 14 -2 14 2 0 4 9 8 20 8 14 0 20 -7 20
-23 0 -13 4 -23 9 -23 6 0 10 112 11 277 0 152 3 279 6 282 3 3 130 7 282 8
207 2 280 0 291 -10 28 -22 60 -37 78 -37 10 0 14 4 8 8 -5 4 -16 15 -23 24
-12 15 -8 16 45 15 l58 -2 3 -257 2 -257 53 -5 c83 -8 157 -2 167 14 12 19 13
1213 1 1206 -5 -3 -8 2 -7 12 1 14 -9 18 -56 20 -32 2 -58 -1 -58 -6 0 -6 -7
-12 -14 -15 -10 -4 -13 -1 -9 9 4 10 -2 14 -20 14 -59 0 -57 10 -57 -265 l0
-253 -27 -4 c-45 -6 -702 0 -713 7 -6 4 -10 96 -10 251 0 134 -3 243 -7 243
-20 -3 -34 2 -28 11 4 6 -25 10 -79 10 -63 0 -88 -4 -100 -16z m78 -3 c3 -5
-1 -11 -9 -15 -15 -6 -29 7 -18 18 9 9 21 8 27 -3z m84 -20 c3 -8 -1 -12 -9
-9 -7 2 -15 10 -17 17 -3 8 1 12 9 9 7 -2 15 -10 17 -17z m-138 -5 c0 -3 -4
-8 -10 -11 -5 -3 -10 -1 -10 4 0 6 5 11 10 11 6 0 10 -2 10 -4z m1010 -496 c0
-5 -5 -10 -11 -10 -5 0 -7 5 -4 10 3 6 8 10 11 10 2 0 4 -4 4 -10z m-895 -150
c3 -5 -1 -10 -9 -10 -9 0 -16 5 -16 10 0 6 4 10 9 10 6 0 13 -4 16 -10z m-65
-380 c0 -5 -2 -10 -4 -10 -3 0 -8 5 -11 10 -3 6 -1 10 4 10 6 0 11 -4 11 -10z
m90 -155 c0 -8 -2 -15 -4 -15 -2 0 -6 7 -10 15 -3 8 -1 15 4 15 6 0 10 -7 10
-15z"/>
<path d="M4480 4115 c0 -8 5 -15 10 -15 6 0 10 7 10 15 0 8 -4 15 -10 15 -5 0
-10 -7 -10 -15z"/>
<path d="M4546 4103 c-11 -11 -6 -23 9 -23 8 0 15 4 15 9 0 13 -16 22 -24 14z"/>
<path d="M4847 3958 c-9 -7 -13 -18 -9 -25 5 -8 12 -8 27 3 12 9 16 17 9 24
-7 7 -16 6 -27 -2z"/>
<path d="M9707 3953 c-13 -12 -7 -23 13 -23 11 0 20 7 20 15 0 15 -21 21 -33
8z"/>
<path d="M9773 3934 c-8 -21 13 -42 28 -27 13 13 5 43 -11 43 -6 0 -13 -7 -17
-16z"/>
<path d="M1227 3899 c-7 -25 17 -37 38 -19 12 10 13 16 4 26 -17 20 -36 17
-42 -7z"/>
<path d="M7845 3910 c4 -6 11 -8 16 -5 14 9 11 15 -7 15 -8 0 -12 -5 -9 -10z"/>
<path d="M4608 3772 c-3 -11 0 -29 7 -42 12 -22 12 -22 18 10 7 33 3 50 -12
50 -5 0 -11 -8 -13 -18z"/>
<path d="M4655 3700 c-3 -5 -1 -10 4 -10 6 0 11 5 11 10 0 6 -2 10 -4 10 -3 0
-8 -4 -11 -10z"/>
<path d="M4680 3688 c0 -19 2 -20 10 -8 13 19 13 30 0 30 -5 0 -10 -10 -10
-22z"/>
<path d="M10412 3674 c-38 -27 -24 -68 20 -56 12 3 16 14 15 38 -2 39 -4 40
-35 18z"/>
<path d="M8662 3618 c-18 -18 -15 -31 9 -47 19 -11 24 -10 40 6 10 10 15 23
11 29 -11 18 -47 25 -60 12z"/>
<path d="M10435 3600 c4 -6 11 -8 16 -5 14 9 11 15 -7 15 -8 0 -12 -5 -9 -10z"/>
<path d="M4575 3590 c3 -5 10 -10 16 -10 5 0 9 5 9 10 0 6 -7 10 -16 10 -8 0
-12 -4 -9 -10z"/>
<path d="M4674 3565 c-1 -14 2 -25 7 -25 5 0 9 11 9 25 0 33 -15 33 -16 0z"/>
<path d="M1809 3564 c-11 -14 -10 -19 10 -35 24 -20 24 -20 41 8 15 25 15 29
1 35 -26 11 -38 9 -52 -8z"/>
<path d="M8784 3535 c-3 -8 -3 -19 0 -24 10 -16 36 -1 36 20 0 22 -28 26 -36
4z"/>
<path d="M4682 3478 c3 -15 2 -47 -2 -72 -5 -31 -3 -47 5 -50 13 -5 14 129 0
142 -4 4 -6 -5 -3 -20z"/>
<path d="M4570 3480 c0 -5 5 -10 11 -10 5 0 7 5 4 10 -3 6 -8 10 -11 10 -2 0
-4 -4 -4 -10z"/>
<path d="M1287 3464 c-11 -11 3 -24 24 -24 12 0 19 5 17 13 -5 14 -31 21 -41
11z"/>
<path d="M4600 3430 c0 -6 7 -10 15 -10 8 0 15 2 15 4 0 2 -7 6 -15 10 -8 3
-15 1 -15 -4z"/>
<path d="M4700 3401 c0 -16 12 -41 20 -41 4 0 5 11 2 25 -4 23 -22 36 -22 16z"/>
<path d="M4630 3376 c0 -2 8 -10 18 -17 15 -13 16 -12 3 4 -13 16 -21 21 -21
13z"/>
<path d="M9431 3316 c-10 -12 -8 -17 9 -26 26 -14 40 -6 33 20 -6 23 -26 26
-42 6z"/>
<path d="M4740 3290 c0 -8 5 -22 10 -30 9 -13 10 -13 10 0 0 8 -5 22 -10 30
-9 13 -10 13 -10 0z"/>
<path d="M7156 2990 c7 -7 19 -7 35 -1 23 9 22 10 -10 10 -24 1 -32 -2 -25 -9z"/>
<path d="M9907 2965 c-4 -8 -2 -17 3 -20 6 -4 10 3 10 14 0 25 -6 27 -13 6z"/>
<path d="M2710 2922 c0 -23 4 -42 9 -42 10 0 8 66 -2 77 -4 3 -7 -12 -7 -35z"/>
<path d="M2740 2895 c0 -8 5 -15 10 -15 6 0 10 7 10 15 0 8 -4 15 -10 15 -5 0
-10 -7 -10 -15z"/>
<path d="M7075 2280 c-17 -19 -17 -22 -3 -36 12 -13 20 -14 37 -5 26 14 26 23
3 45 -18 15 -20 15 -37 -4z"/>
<path d="M6960 2265 c0 -9 5 -15 11 -13 6 2 11 8 11 13 0 5 -5 11 -11 13 -6 2
-11 -4 -11 -13z"/>
<path d="M7130 2214 c0 -8 5 -12 10 -9 6 4 8 11 5 16 -9 14 -15 11 -15 -7z"/>
<path d="M5880 2060 c-8 -5 -23 -11 -33 -14 -16 -5 -17 -17 -15 -98 l3 -93
105 -1 105 -1 3 -26 3 -27 -106 0 c-89 0 -107 -3 -112 -16 -4 -11 1 -23 13
-32 16 -12 16 -14 2 -9 -10 4 -18 3 -18 -2 0 -12 146 -21 228 -14 l72 6 0 63
c0 40 -4 64 -12 68 -10 5 -10 7 0 12 14 6 16 40 4 48 -5 3 -21 2 -37 -2 -16
-5 -49 -5 -74 -2 -62 7 -81 3 -75 -18 5 -15 4 -15 -6 1 -6 9 -15 15 -19 12 -5
-2 -6 9 -2 27 l6 31 90 3 c50 1 98 3 108 3 14 1 18 8 15 34 l-3 32 -89 2 c-49
1 -94 7 -99 12 -13 13 -36 13 -57 1z m197 -282 c-3 -8 -6 -5 -6 6 -1 11 2 17
5 13 3 -3 4 -12 1 -19z m-97 -7 c0 -5 8 -12 18 -14 14 -4 14 -5 1 -6 -9 0 -22
6 -29 14 -9 10 -9 15 -1 15 6 0 11 -4 11 -9z"/>
<path d="M2792 2042 c-17 -11 -15 -299 1 -309 17 -10 111 -2 119 10 4 6 5 14
2 18 -2 4 5 5 16 2 11 -3 20 -9 20 -14 0 -5 -3 -8 -7 -6 -5 1 -8 -2 -8 -8 0
-14 34 -8 51 10 9 8 12 20 8 26 -4 8 0 7 16 -1 12 -6 19 -17 17 -25 -7 -16 51
-29 67 -16 7 6 11 63 11 163 l0 153 -150 2 c-82 2 -156 -1 -163 -5z m233 -152
l0 -85 -80 0 -80 0 -3 74 c-2 41 -1 79 1 85 3 7 36 11 83 11 l79 0 0 -85z
m-45 -124 c0 -3 -4 -8 -10 -11 -5 -3 -10 -1 -10 4 0 6 5 11 10 11 6 0 10 -2
10 -4z"/>
<path d="M3359 2008 c-8 -298 -9 -292 42 -285 22 4 24 9 27 65 l3 61 101 3
c101 3 102 3 109 30 4 17 3 31 -4 35 -5 3 -53 7 -106 7 -95 1 -96 1 -96 25 0
24 1 24 105 25 l105 1 0 35 0 35 -142 3 -143 3 -1 -43z"/>
<path d="M4174 2036 c-3 -8 -4 -25 -2 -38 3 -21 9 -23 66 -26 l62 -3 0 -72 c0
-44 5 -78 12 -85 9 -9 9 -12 0 -12 -18 0 -14 -31 6 -46 16 -13 16 -13 -2 -14
-12 0 -16 -3 -10 -9 13 -13 74 -1 74 15 0 7 -5 16 -10 19 -8 5 -8 11 0 20 7 8
10 46 9 93 -1 44 1 84 5 91 5 7 25 9 61 5 48 -6 53 -5 60 15 3 11 3 30 0 41
-6 19 -15 20 -166 20 -129 0 -161 -3 -165 -14z m186 -236 c0 -5 -2 -10 -4 -10
-3 0 -8 5 -11 10 -3 6 -1 10 4 10 6 0 11 -4 11 -10z"/>
<path d="M4736 2034 c-9 -23 -7 -157 2 -171 5 -8 44 -13 112 -15 97 -3 105 -4
105 -23 0 -14 -8 -21 -25 -24 -14 -1 -28 -8 -32 -15 -6 -8 -8 -8 -8 2 0 7 -13
12 -31 12 -25 0 -30 -3 -25 -16 6 -15 4 -15 -10 -3 -9 7 -31 14 -49 16 -28 1
-34 -2 -38 -25 -3 -15 -1 -31 4 -37 14 -15 149 -13 149 3 0 6 5 12 11 12 5 0
8 -4 4 -9 -8 -14 55 -23 90 -13 l30 8 3 92 3 91 -108 3 c-103 3 -108 4 -111
26 -4 25 -8 24 118 26 l95 1 0 35 c0 26 -5 36 -19 38 -11 3 -16 0 -12 -7 4 -6
3 -11 -3 -11 -5 0 -12 4 -16 9 -3 5 -56 10 -119 10 -94 0 -115 -2 -120 -15z
m248 -20 c21 -20 20 -22 -8 -20 -17 1 -22 4 -15 13 7 8 3 13 -13 16 -22 4 -22
4 -1 6 12 0 29 -6 37 -15z m-192 -55 c5 -3 -2 -13 -16 -23 -23 -14 -26 -15
-26 -1 0 23 24 58 29 43 2 -7 8 -16 13 -19z m18 -189 c0 -5 -4 -10 -10 -10 -5
0 -10 5 -10 10 0 6 5 10 10 10 6 0 10 -4 10 -10z"/>
<path d="M4760 1949 c0 -5 5 -7 10 -4 6 3 10 8 10 11 0 2 -4 4 -10 4 -5 0 -10
-5 -10 -11z"/>
<path d="M5287 2043 c-16 -4 -18 -18 -16 -158 l1 -153 111 -1 c93 -1 112 2
124 17 14 16 14 16 9 0 -4 -15 1 -18 35 -18 l40 0 -3 158 -3 157 -35 0 -35 0
-1 -118 c-1 -65 -4 -120 -7 -124 -4 -3 -35 -6 -69 -7 -55 -1 -63 -3 -60 -20 2
-11 -1 -15 -8 -11 -6 4 -9 13 -6 20 3 8 0 15 -5 17 -6 2 -11 53 -12 123 -2
112 -3 120 -22 122 -11 0 -28 -1 -38 -4z m170 -279 c-3 -3 -12 -4 -19 -1 -8 3
-5 6 6 6 11 1 17 -2 13 -5z"/>
<path d="M6369 2033 c-2 -39 -1 -201 1 -251 2 -46 6 -53 26 -58 32 -8 57 12
44 36 -5 9 -7 20 -3 24 3 3 6 19 5 36 l-1 30 70 0 c62 0 69 -2 69 -20 0 -11 9
-29 20 -40 23 -23 27 -38 5 -20 -12 10 -16 9 -21 -4 -9 -25 12 -43 44 -38 23
3 29 9 30 31 0 15 1 31 2 36 2 6 2 65 1 133 l-1 122 -35 0 c-35 0 -35 0 -36
-47 -1 -27 -2 -55 -3 -63 -1 -12 -16 -15 -71 -15 l-70 0 0 60 0 60 -37 3 c-31
3 -38 0 -39 -15z"/>
<path d="M6925 2041 c-18 -8 -20 -17 -19 -107 2 -195 3 -209 17 -193 6 8 11
12 10 10 -7 -11 20 -28 38 -24 18 5 19 7 4 29 -14 21 -14 24 0 24 13 0 15 20
15 123 0 144 -8 161 -65 138z"/>
<path d="M7231 1890 l1 -160 24 0 c14 0 22 4 19 10 -3 6 -2 10 4 10 5 0 12 -6
14 -12 8 -18 10 22 8 135 l-1 97 50 0 49 0 3 -122 3 -123 25 0 c33 0 56 15 39
26 -10 6 -10 11 0 23 9 10 12 44 10 107 l-3 93 43 2 c25 1 44 -3 47 -10 2 -6
5 -63 7 -126 l2 -115 25 3 c52 5 51 2 48 164 l-3 153 -208 3 -207 2 1 -160z
m229 -99 c0 -5 -7 -11 -14 -14 -10 -4 -13 -1 -9 9 6 15 23 19 23 5z m142 -43
c-7 -7 -12 -8 -12 -2 0 14 12 26 19 19 2 -3 -1 -11 -7 -17z"/>
<path d="M7887 2043 c-11 -11 -8 -311 3 -318 6 -3 10 -2 10 4 0 6 12 8 31 4
31 -6 31 -6 27 33 l-3 39 72 3 72 3 3 -43 c3 -40 5 -43 33 -44 17 -1 33 4 37
10 13 19 9 291 -4 304 -13 13 -269 18 -281 5z m208 -114 l0 -42 -67 -4 -68 -5
0 45 c0 24 2 46 4 48 2 2 33 3 68 2 l63 -1 0 -43z"/>
<path d="M8288 1760 c2 -16 8 -30 12 -30 4 0 10 14 12 30 4 23 1 30 -12 30
-13 0 -16 -7 -12 -30z"/>
<path d="M8337 1769 c-10 -35 -8 -46 4 -29 8 12 12 12 16 2 4 -10 8 -10 19 -1
10 8 14 8 14 0 0 -6 4 -11 9 -11 6 0 5 14 -2 33 -8 22 -12 27 -15 15 -4 -22
-18 -23 -30 -2 -8 14 -10 13 -15 -7z"/>
<path d="M2910 945 l0 -125 61 0 c94 0 149 45 149 122 0 78 -59 128 -151 128
l-59 0 0 -125z m148 59 c31 -35 30 -93 -3 -128 -19 -20 -33 -26 -67 -26 l-43
0 2 92 c1 51 2 95 2 97 1 2 20 1 44 -3 27 -4 50 -15 65 -32z"/>
<path d="M3363 1063 c-10 -3 -13 -38 -13 -124 0 -107 2 -119 18 -119 15 0 17
13 17 125 0 69 -2 125 -5 124 -3 0 -11 -3 -17 -6z"/>
<path d="M3620 945 c0 -118 1 -125 20 -125 18 0 20 7 20 60 0 73 14 72 61 -5
21 -34 40 -55 56 -58 12 -2 23 -3 23 -1 0 1 -18 30 -40 63 -45 67 -46 71 -25
71 25 0 47 44 36 73 -13 35 -40 47 -100 47 l-51 0 0 -125z m114 75 c16 -16 -6
-43 -42 -51 -32 -6 -32 -6 -32 33 0 38 1 39 31 34 18 -2 37 -10 43 -16z"/>
<path d="M4015 945 l0 -125 78 0 c62 0 77 3 77 15 0 12 -13 15 -60 15 l-60 0
0 45 0 45 49 0 c34 0 51 4 55 15 4 12 -5 15 -49 15 l-55 0 0 35 0 34 49 -6
c43 -5 50 -3 60 16 11 21 10 21 -66 21 l-78 0 0 -125z"/>
<path d="M4463 1056 c-65 -29 -92 -116 -55 -178 19 -33 78 -68 115 -68 41 0
85 20 90 41 4 16 2 19 -11 14 -26 -11 -66 -21 -77 -20 -59 5 -95 44 -95 103 0
67 83 113 141 79 23 -12 30 -13 39 -3 28 34 -87 59 -147 32z"/>
<path d="M4830 1050 c0 -16 6 -20 33 -18 l32 3 0 -108 c0 -100 1 -107 20 -107
19 0 20 7 20 107 l0 108 30 -2 c28 -2 49 13 39 29 -3 4 -43 8 -90 8 -77 0 -84
-2 -84 -20z"/>
<path d="M5272 1050 c-41 -25 -66 -81 -58 -129 6 -39 45 -84 87 -101 63 -26
149 19 170 88 33 113 -96 205 -199 142z m112 -20 c28 -10 56 -57 56 -94 0 -13
-12 -38 -26 -55 -20 -25 -34 -31 -64 -31 -52 0 -68 8 -85 41 -46 88 27 174
119 139z"/>
<path d="M5700 945 c0 -118 1 -125 20 -125 18 0 20 7 20 60 0 73 12 72 59 -4
21 -36 40 -55 57 -59 13 -2 24 -3 24 -2 0 2 -18 30 -40 63 -44 66 -46 72 -26
72 20 0 39 27 39 57 0 41 -35 63 -99 63 l-54 0 0 -125z m96 86 c17 -1 26 -32
14 -46 -6 -7 -24 -15 -40 -17 -29 -4 -30 -3 -30 32 0 32 3 36 23 34 12 -1 27
-3 33 -3z"/>
<path d="M6100 1046 c0 -14 -4 -36 -10 -50 -16 -42 17 -32 35 10 20 49 19 64
-5 64 -15 0 -20 -7 -20 -24z"/>
<path d="M6387 1052 c-20 -22 -22 -62 -4 -84 6 -9 31 -28 55 -42 33 -21 43
-32 40 -49 -3 -19 -9 -22 -43 -21 -22 0 -48 4 -59 9 -32 14 -15 -28 18 -44 42
-20 97 -5 114 32 18 38 -1 74 -58 107 -49 29 -60 50 -35 70 12 10 21 10 42 1
35 -16 58 3 29 25 -28 20 -80 18 -99 -4z"/>
<path d="M7085 1060 c-66 -27 -95 -125 -55 -188 26 -42 81 -66 138 -59 48 5
56 11 67 47 8 24 7 24 -18 7 -26 -17 -91 -23 -122 -11 -22 9 -45 56 -45 93 0
17 10 42 24 58 20 23 32 28 70 28 30 0 50 -5 56 -14 7 -13 11 -13 25 -1 16 13
15 15 -5 32 -24 19 -98 24 -135 8z"/>
<path d="M7472 964 c3 -102 4 -107 31 -130 16 -13 41 -24 57 -24 16 0 41 11
57 24 27 23 28 28 31 131 4 99 3 107 -15 103 -16 -3 -18 -15 -21 -98 -1 -51
-8 -100 -14 -107 -13 -16 -60 -17 -76 -1 -8 8 -12 47 -12 110 0 93 -1 98 -21
98 -20 0 -21 -4 -17 -106z"/>
<path d="M7870 1049 c0 -17 5 -20 33 -17 l32 3 -1 -111 c0 -103 1 -110 19
-109 18 1 19 9 18 108 l-2 107 34 0 c30 0 47 13 47 36 0 2 -40 4 -90 4 -84 0
-90 -1 -90 -21z"/>
</g>
</svg>
